<svg width="86" height="24" viewBox="0 0 86 24" fill="none" xmlns="http://www.w3.org/2000/svg">
<path d="M17.7148 6.69902H15.2514C14.9192 6.69902 14.6147 6.8928 14.4763 7.19731L9.27261 18.7964L4.0412 7.19731C3.9028 6.8928 3.59833 6.69902 3.26617 6.69902H0.830383C0.359833 6.69902 0 7.0589 0 7.52951C0 7.66792 0.0276794 7.77865 0.0830383 7.88938L6.53235 22.1737C7.03058 23.2534 8.11007 23.9454 9.30029 23.9454C10.4905 23.9454 11.57 23.2534 12.0682 22.146L18.4899 7.8617C18.6836 7.44646 18.5175 6.94817 18.1024 6.75439C17.964 6.7267 17.8256 6.69902 17.7148 6.69902Z" fill="white"/>
<path d="M63.552 18.797C65.019 20.0981 67.1504 20.4026 68.9218 19.5721C70.1397 19.0185 71.0532 17.9665 71.496 16.7208L75.2051 18.0772C73.572 22.7003 68.5343 25.1087 63.9119 23.5031C61.6698 22.7003 59.8153 21.0393 58.8188 18.88C56.7152 14.4508 58.5974 9.16337 63.0261 7.08716C66.8182 5.28777 71.3299 6.39509 73.8765 9.71703C74.6792 10.769 75.2604 11.9593 75.5372 13.2604L63.552 18.797ZM70.1397 11.4057C68.0915 9.6063 64.9914 9.77239 63.1645 11.8209C62.3341 12.7621 61.8636 14.0079 61.9189 15.2536L70.1397 11.4057Z" fill="white"/>
<path d="M11.8191 20.2082C10.795 20.2082 9.8262 19.6823 9.27261 18.7964V18.7687L4.0412 7.19731C3.9028 6.8928 3.59833 6.69902 3.26617 6.69902H0.830383C0.359833 6.69902 0 7.0589 0 7.52951C0 7.66792 0.0276794 7.77865 0.0830383 7.88938L6.53235 22.1737C7.22433 23.6963 9.05118 24.3607 10.5735 23.6686C11.2379 23.3641 11.7638 22.8381 12.0682 22.1737L13.0647 19.9314C12.6495 20.1252 12.2343 20.2082 11.8191 20.2082Z" fill="white"/>
<path d="M26.9875 6.22852C22.0882 6.22852 18.13 10.1872 18.13 15.087C18.13 19.9869 22.0882 23.9455 26.9875 23.9455C31.8867 23.9455 35.8449 19.9869 35.8449 15.087C35.8449 10.2148 31.8867 6.22852 26.9875 6.22852ZM26.9875 20.0423C24.2749 20.0423 22.0605 17.8276 22.0605 15.1147C22.0605 12.4018 24.2749 10.1872 26.9875 10.1872C29.7 10.1872 31.9144 12.4018 31.9144 15.1147C31.9144 17.8276 29.7 20.0423 26.9875 20.0423Z" fill="white"/>
<path d="M38.3361 10.2983H40.5507C41.0213 10.2983 41.4089 10.6859 41.4089 11.1565V22.7003C41.4089 23.1709 41.0213 23.5584 40.5507 23.5584H38.3361C37.8655 23.5584 37.4779 23.1709 37.4779 22.7003V11.1288C37.5056 10.6582 37.8655 10.2983 38.3361 10.2983Z" fill="white"/>
<path d="M34.9869 1.55029H36.0942C36.3156 1.55029 36.5094 1.74407 36.5094 1.96554V5.42589C36.5094 5.64735 36.3156 5.84113 36.0942 5.84113H34.9869C34.7654 5.84113 34.5716 5.64735 34.5716 5.42589V1.96554C34.5716 1.74407 34.7654 1.55029 34.9869 1.55029Z" fill="white"/>
<path d="M38.8897 0H39.997C40.2185 0 40.4123 0.19378 40.4123 0.415243V6.97608C40.4123 7.19754 40.2185 7.39132 39.997 7.39132H38.8897C38.6682 7.39132 38.4745 7.19754 38.4745 6.97608V0.415243C38.4745 0.19378 38.6682 0 38.8897 0Z" fill="white"/>
<path d="M42.7924 1.55029H43.8997C44.1212 1.55029 44.315 1.74407 44.315 1.96554V5.42589C44.315 5.64735 44.1212 5.84113 43.8997 5.84113H42.7924C42.5709 5.84113 42.3772 5.64735 42.3772 5.42589V1.96554C42.3772 1.74407 42.5709 1.55029 42.7924 1.55029Z" fill="white"/>
<path d="M78.1392 6.69922H80.3538C80.8244 6.69922 81.1843 7.08678 81.1843 7.5297V22.6445C81.1843 23.1151 80.7967 23.475 80.3538 23.475H78.1392C77.6686 23.475 77.3087 23.0875 77.3087 22.6445V7.55739C77.281 7.08678 77.6686 6.69922 78.1392 6.69922Z" fill="white"/>
<path d="M85.0589 6.31201C80.6302 6.86567 77.3087 10.6305 77.3087 15.0875H81.2392C81.2392 12.4299 83.3428 10.243 86 10.1599V7.17018C86 6.69957 85.6125 6.31201 85.1697 6.31201C85.1143 6.31201 85.0866 6.31201 85.0589 6.31201Z" fill="white"/>
<path d="M49.8783 23.9734C53.1722 23.9734 56.6875 22.6169 56.6875 18.769C56.6875 15.0318 53.4767 14.2013 50.9025 13.5093C49.1587 13.0386 47.664 12.6511 47.664 11.2946C47.664 10.4365 48.2729 9.46756 50.0167 9.46756C51.0962 9.43987 52.1204 9.93816 52.757 10.824L55.9955 9.08C54.6115 7.25293 52.5356 6.25635 50.0167 6.25635C47.0827 6.25635 43.6505 7.61281 43.6505 11.4607C43.6505 14.6442 46.2523 15.6131 49.4078 16.499C51.1516 16.9973 52.674 17.4125 52.674 18.7413C52.674 19.3226 52.3972 20.6791 49.8783 20.6791C48.3283 20.6791 47.1104 20.0424 46.3907 18.852L43.0969 20.7345C44.4255 22.8661 46.6952 23.9734 49.8783 23.9734Z" fill="white"/>
</svg>
