<svg width="30" height="30" viewBox="0 0 30 30" fill="none" xmlns="http://www.w3.org/2000/svg">
<g clip-path="url(#clip0_1_243)">
<path d="M13.9548 0.0365853C18.2973 -0.257165 22.5485 1.33159 25.6148 4.40159C28.681 7.47159 30.2635 11.7228 29.9623 16.0678C29.4123 24.0103 22.3973 30.0003 13.6448 30.0003H6.24851C2.80226 30.0003 -0.00149536 27.1966 -0.00149536 23.7503V15.4253C-0.000244141 7.32784 6.12976 0.567835 13.9548 0.0365853Z" fill="url(#paint0_linear_1_243)"/>
<g clip-path="url(#clip1_1_243)">
<path d="M14.2064 12.1751L9.95207 7.92072C9.39145 7.3601 8.48145 7.3601 7.92082 7.92072C7.3602 8.48135 7.3602 9.39135 7.92082 9.95197L12.1752 14.2063C12.6833 14.7145 13.3721 15.0001 14.0908 15.0001H15.0002V14.0907C15.0002 13.372 14.7146 12.6832 14.2064 12.1751ZM9.53332 13.3326L11.2914 15.0907C12.0339 15.8332 13.0402 16.2501 14.0902 16.2501H15.6246C15.9696 16.2501 16.2496 15.9701 16.2496 15.6251V14.0907C16.2496 13.7601 16.2046 13.4376 16.1264 13.1251H19.3746C21.1002 13.1251 22.4996 14.5245 22.4996 16.2501V18.7501C22.4996 20.4757 21.1002 21.8751 19.3746 21.8751H10.6246C8.89895 21.8751 7.49957 20.4757 7.49957 18.7501V16.2501C7.49957 14.9126 8.34895 13.7776 9.53332 13.3326ZM19.0621 18.7232C19.5796 18.7232 19.9996 18.3032 19.9996 17.7857C19.9996 17.2682 19.5796 16.8482 19.0621 16.8482C18.5446 16.8482 18.1246 17.2682 18.1246 17.7857C18.1246 18.3032 18.5446 18.7232 19.0621 18.7232ZM15.9371 18.7232C16.4546 18.7232 16.8746 18.3032 16.8746 17.7857C16.8746 17.2682 16.4546 16.8482 15.9371 16.8482C15.4196 16.8482 14.9996 17.2682 14.9996 17.7857C14.9996 18.3032 15.4196 18.7232 15.9371 18.7232Z" fill="white"/>
</g>
</g>
<defs>
<linearGradient id="paint0_linear_1_243" x1="29.9986" y1="0.00201416" x2="0.00027471" y2="30.0021" gradientUnits="userSpaceOnUse">
<stop stop-color="#B171FB"/>
<stop offset="1" stop-color="#825CEA"/>
</linearGradient>
<clipPath id="clip0_1_243">
<rect width="30" height="30" fill="white" transform="matrix(-1 0 0 1 30 0)"/>
</clipPath>
<clipPath id="clip1_1_243">
<rect width="15" height="15" fill="white" transform="matrix(-1 0 0 1 22.5 7.5)"/>
</clipPath>
</defs>
</svg>
