<svg width="12" height="12" viewBox="0 0 12 12" fill="none" xmlns="http://www.w3.org/2000/svg">
<path d="M1 7.50002H5.5V12H3.5C2.83696 12 2.20107 11.7366 1.73223 11.2678C1.26339 10.7989 1 10.1631 1 9.50002V7.50002ZM12 5.50002C12 5.76523 11.8946 6.01959 11.7071 6.20712C11.5196 6.39466 11.2652 6.50002 11 6.50002H6.5V4.47852C6.332 4.49152 6.1645 4.50002 6 4.50002C5.8355 4.50002 5.668 4.49152 5.5 4.47852V6.50002H1C0.734784 6.50002 0.48043 6.39466 0.292893 6.20712C0.105357 6.01959 0 5.76523 0 5.50002C0 4.96958 0.210714 4.46087 0.585786 4.0858C0.960859 3.71073 1.46957 3.50002 2 3.50002H2.869C2.5863 3.25081 2.3619 2.94245 2.21172 2.59681C2.06154 2.25117 1.98926 1.87672 2 1.50002C2 1.36741 2.05268 1.24023 2.14645 1.14646C2.24021 1.05269 2.36739 1.00002 2.5 1.00002C2.63261 1.00002 2.75979 1.05269 2.85355 1.14646C2.94732 1.24023 3 1.36741 3 1.50002C3 2.81102 4.1855 3.26502 5.087 3.42052C4.75426 2.83054 4.55395 2.1752 4.5 1.50002C4.5 1.10219 4.65804 0.72066 4.93934 0.439355C5.22064 0.158051 5.60218 1.52588e-05 6 1.52588e-05C6.39782 1.52588e-05 6.77936 0.158051 7.06066 0.439355C7.34196 0.72066 7.5 1.10219 7.5 1.50002C7.44605 2.1752 7.24574 2.83054 6.913 3.42052C7.8145 3.26502 9 2.81102 9 1.50002C9 1.36741 9.05268 1.24023 9.14645 1.14646C9.24021 1.05269 9.36739 1.00002 9.5 1.00002C9.63261 1.00002 9.75979 1.05269 9.85355 1.14646C9.94732 1.24023 10 1.36741 10 1.50002C10.0107 1.87672 9.93846 2.25117 9.78828 2.59681C9.6381 2.94245 9.4137 3.25081 9.131 3.50002H10C10.5304 3.50002 11.0391 3.71073 11.4142 4.0858C11.7893 4.46087 12 4.96958 12 5.50002ZM5.5 1.50002C5.56036 2.03143 5.73063 2.54447 6 3.00652C6.26937 2.54447 6.43964 2.03143 6.5 1.50002C6.5 1.36741 6.44732 1.24023 6.35355 1.14646C6.25979 1.05269 6.13261 1.00002 6 1.00002C5.86739 1.00002 5.74021 1.05269 5.64645 1.14646C5.55268 1.24023 5.5 1.36741 5.5 1.50002ZM6.5 12H8.5C8.8283 12 9.15339 11.9354 9.45671 11.8097C9.76002 11.6841 10.0356 11.4999 10.2678 11.2678C10.4999 11.0356 10.6841 10.76 10.8097 10.4567C10.9353 10.1534 11 9.82832 11 9.50002V7.50002H6.5V12Z" fill="white"/>
</svg>
