<svg width="10" height="11" viewBox="0 0 10 11" fill="none" xmlns="http://www.w3.org/2000/svg">
<path d="M5.39123 10.2153C5.24748 10.5493 4.75248 10.5493 4.60873 10.2153L3.40457 7.2127L0.262065 6.06214C-0.0875179 5.92479 -0.0875179 5.45183 0.262065 5.31448L3.40457 4.16392L4.60873 1.16133C4.75248 0.827307 5.24748 0.827307 5.39123 1.16133L6.5954 4.16392L9.7379 5.31448C10.0875 5.45183 10.0875 5.92479 9.7379 6.06214L6.5954 7.2127L5.39123 10.2153ZM1.99082 3.85896L2.76623 3.55401L3.08707 2.80913L1.4529 1.77323C1.09207 1.54551 0.663732 1.95438 0.902065 2.29954L1.99082 3.85896ZM7.23373 3.55401L8.00915 3.85896L9.09748 2.29954C9.33582 1.95477 8.90748 1.54551 8.54665 1.77323L6.91248 2.80913L7.23373 3.55401ZM8.01165 7.51686L7.23373 7.82301L6.91457 8.5639L8.54707 9.59901C8.9079 9.82673 9.33623 9.41786 9.0979 9.0727L8.01207 7.51726L8.01165 7.51686ZM2.76582 7.82301L1.9879 7.51686L0.902065 9.0723C0.663732 9.41707 1.09207 9.82633 1.4529 9.59861L3.0854 8.56351L2.76623 7.82261L2.76582 7.82301Z" fill="#875DEB"/>
</svg>
