<svg width="12" height="12" viewBox="0 0 12 12" fill="none" xmlns="http://www.w3.org/2000/svg">
<g clip-path="url(#clip0_1_271)">
<path d="M6 0C4.81331 0 3.65328 0.351894 2.66658 1.01118C1.67989 1.67047 0.910851 2.60754 0.456726 3.7039C0.00259972 4.80026 -0.11622 6.00666 0.115291 7.17054C0.346802 8.33443 0.918247 9.40353 1.75736 10.2426C2.59648 11.0818 3.66558 11.6532 4.82946 11.8847C5.99335 12.1162 7.19975 11.9974 8.2961 11.5433C9.39246 11.0892 10.3295 10.3201 10.9888 9.33342C11.6481 8.34673 12 7.18669 12 6C11.9983 4.40923 11.3656 2.88411 10.2407 1.75926C9.1159 0.634414 7.59077 0.00172054 6 0ZM6 11C5.0111 11 4.0444 10.7068 3.22215 10.1573C2.39991 9.60794 1.75904 8.82705 1.38061 7.91342C1.00217 6.99979 0.90315 5.99445 1.09608 5.02455C1.289 4.05464 1.76521 3.16373 2.46447 2.46447C3.16373 1.7652 4.05465 1.289 5.02455 1.09607C5.99446 0.903148 6.99979 1.00216 7.91342 1.3806C8.82705 1.75904 9.60794 2.3999 10.1574 3.22215C10.7068 4.04439 11 5.01109 11 6C10.9985 7.32564 10.4713 8.59656 9.53393 9.53393C8.59656 10.4713 7.32564 10.9985 6 11Z" fill="#875DEB"/>
<path d="M6.3585 2.53151C6.07016 2.47897 5.77381 2.49045 5.4904 2.56513C5.20699 2.63981 4.94345 2.77586 4.71845 2.96366C4.49344 3.15146 4.31246 3.38642 4.18831 3.65191C4.06415 3.9174 3.99987 4.20693 4 4.50001C4 4.63262 4.05268 4.75979 4.14645 4.85356C4.24022 4.94733 4.36739 5.00001 4.5 5.00001C4.63261 5.00001 4.75979 4.94733 4.85355 4.85356C4.94732 4.75979 5 4.63262 5 4.50001C4.99987 4.3529 5.03221 4.20757 5.0947 4.07439C5.15718 3.94121 5.24829 3.82345 5.36151 3.72952C5.47473 3.63559 5.60728 3.5678 5.74971 3.53098C5.89214 3.49416 6.04094 3.48922 6.1855 3.51651C6.38302 3.55485 6.56463 3.6512 6.70712 3.79325C6.84962 3.9353 6.94654 4.11661 6.9855 4.31401C7.02485 4.52121 6.99768 4.73555 6.90788 4.92638C6.81808 5.11721 6.67024 5.27476 6.4855 5.37651C6.17958 5.55374 5.92679 5.80977 5.75346 6.11791C5.58013 6.42605 5.49261 6.77504 5.5 7.12851V7.50001C5.5 7.63262 5.55268 7.75979 5.64645 7.85356C5.74022 7.94733 5.86739 8.00001 6 8.00001C6.13261 8.00001 6.25979 7.94733 6.35355 7.85356C6.44732 7.75979 6.5 7.63262 6.5 7.50001V7.12851C6.49373 6.95451 6.5334 6.78194 6.61503 6.62815C6.69667 6.47437 6.81737 6.34481 6.965 6.25251C7.32726 6.05354 7.61898 5.74724 7.80004 5.37571C7.98111 5.00418 8.04263 4.58569 7.97614 4.17777C7.90965 3.76985 7.71842 3.39255 7.42875 3.09776C7.13908 2.80296 6.76519 2.60514 6.3585 2.53151Z" fill="#875DEB"/>
<path d="M6.5 9C6.5 8.72386 6.27614 8.5 6 8.5C5.72386 8.5 5.5 8.72386 5.5 9C5.5 9.27614 5.72386 9.5 6 9.5C6.27614 9.5 6.5 9.27614 6.5 9Z" fill="#875DEB"/>
</g>
<defs>
<clipPath id="clip0_1_271">
<rect width="12" height="12" fill="white"/>
</clipPath>
</defs>
</svg>
