<svg width="16" height="15" viewBox="0 0 16 15" fill="none" xmlns="http://www.w3.org/2000/svg">
<path d="M7.20645 5.1751L2.95207 0.920721C2.39145 0.360096 1.48145 0.360096 0.920822 0.920721C0.360198 1.48135 0.360198 2.39135 0.920822 2.95197L5.1752 7.20635C5.68332 7.71447 6.37207 8.0001 7.09082 8.0001H8.0002V7.09072C8.0002 6.37197 7.71457 5.68322 7.20645 5.1751ZM2.53332 6.3326L4.29145 8.09072C5.03395 8.83322 6.0402 9.2501 7.0902 9.2501H8.62457C8.96957 9.2501 9.24957 8.9701 9.24957 8.6251V7.09072C9.24957 6.7601 9.20457 6.4376 9.12645 6.1251H12.3746C14.1002 6.1251 15.4996 7.52447 15.4996 9.2501V11.7501C15.4996 13.4757 14.1002 14.8751 12.3746 14.8751H3.62457C1.89895 14.8751 0.499573 13.4757 0.499573 11.7501V9.2501C0.499573 7.9126 1.34895 6.7776 2.53332 6.3326ZM12.0621 11.7232C12.5796 11.7232 12.9996 11.3032 12.9996 10.7857C12.9996 10.2682 12.5796 9.84822 12.0621 9.84822C11.5446 9.84822 11.1246 10.2682 11.1246 10.7857C11.1246 11.3032 11.5446 11.7232 12.0621 11.7232ZM8.93707 11.7232C9.45457 11.7232 9.87457 11.3032 9.87457 10.7857C9.87457 10.2682 9.45457 9.84822 8.93707 9.84822C8.41957 9.84822 7.99957 10.2682 7.99957 10.7857C7.99957 11.3032 8.41957 11.7232 8.93707 11.7232Z" fill="white"/>
</svg>
