<svg width="15" height="13" viewBox="0 0 15 13" fill="none" xmlns="http://www.w3.org/2000/svg">
<path d="M13.3169 2.16252C13.1512 2.04814 12.9406 2.01877 12.7531 2.08627C12.6912 2.10814 11.5737 2.51127 10.7862 3.51627C10.1431 2.37127 9.35936 1.42877 7.80249 0.570641C7.61561 0.466891 7.38686 0.466891 7.19999 0.570641C5.64686 1.42377 4.87936 2.34189 4.22061 3.51439C3.43249 2.50439 2.30624 2.10689 2.24374 2.08564C2.05624 2.02127 1.84749 2.04939 1.68374 2.16377C0.687485 2.85689 0.62561 6.71064 0.62561 6.74877C0.62561 10.0306 1.37374 11.1856 1.45874 11.3063C1.53186 11.41 1.63499 11.4888 1.75436 11.5325C1.86249 11.5725 4.44624 12.5088 7.50061 12.5088C10.555 12.5088 13.1381 11.5725 13.2462 11.5325C13.3681 11.4881 13.4725 11.4063 13.5462 11.3C13.6312 11.1763 14.375 10.0006 14.375 6.74877C14.375 6.71002 14.3125 2.85627 13.3169 2.16377V2.16252Z" fill="#FFD800"/>
</svg>
