<svg width="14" height="14" viewBox="0 0 14 14" fill="none" xmlns="http://www.w3.org/2000/svg">
<path d="M7.51508 8.87599L2.88633 13.5047C2.73073 13.6681 2.54402 13.7987 2.33718 13.8889C2.13034 13.979 1.90757 14.0269 1.68196 14.0296C1.45635 14.0324 1.23247 13.99 1.0235 13.9049C0.814527 13.8198 0.624684 13.6938 0.465143 13.5343C0.305603 13.3747 0.179589 13.1849 0.0945185 12.9759C0.00944812 12.7669 -0.0329596 12.5431 -0.0302087 12.3174C-0.0274578 12.0918 0.0203961 11.8691 0.110537 11.6622C0.200677 11.4554 0.331282 11.2687 0.494666 11.1131L5.12342 6.48433L7.51508 8.87599ZM9.975 4.02499C9.65296 3.7172 9.22464 3.54543 8.77917 3.54543C8.33369 3.54543 7.90537 3.7172 7.58333 4.02499L5.95 5.65833L8.34167 8.04999L9.975 6.41666C10.292 6.09944 10.4701 5.66931 10.4701 5.22083C10.4701 4.77234 10.292 4.34221 9.975 4.02499ZM2.83675 3.00124L3.74092 3.25907L3.99875 4.16324C4.04029 4.30833 4.12793 4.43594 4.24844 4.52679C4.36894 4.61763 4.51575 4.66677 4.66667 4.66677C4.81758 4.66677 4.96439 4.61763 5.08489 4.52679C5.2054 4.43594 5.29305 4.30833 5.33458 4.16324L5.59242 3.25907L6.49658 3.00124C6.64167 2.95971 6.76928 2.87206 6.86013 2.75155C6.95097 2.63105 7.00011 2.48424 7.00011 2.33332C7.00011 2.18241 6.95097 2.0356 6.86013 1.9151C6.76928 1.79459 6.64167 1.70694 6.49658 1.66541L5.59242 1.40758L5.33458 0.503408C5.29305 0.358324 5.2054 0.23071 5.08489 0.139863C4.96439 0.0490167 4.81758 -0.00012207 4.66667 -0.00012207C4.51575 -0.00012207 4.36894 0.0490167 4.24844 0.139863C4.12793 0.23071 4.04029 0.358324 3.99875 0.503408L3.74092 1.40758L2.83675 1.66541C2.69166 1.70694 2.56405 1.79459 2.4732 1.9151C2.38236 2.0356 2.33322 2.18241 2.33322 2.33332C2.33322 2.48424 2.38236 2.63105 2.4732 2.75155C2.56405 2.87206 2.69166 2.95971 2.83675 3.00124ZM9.83675 10.0012L10.7409 10.2591L10.9987 11.1632C11.0403 11.3083 11.1279 11.4359 11.2484 11.5268C11.3689 11.6176 11.5158 11.6668 11.6667 11.6668C11.8176 11.6668 11.9644 11.6176 12.0849 11.5268C12.2054 11.4359 12.293 11.3083 12.3346 11.1632L12.5924 10.2591L13.4966 10.0012C13.6417 9.95971 13.7693 9.87206 13.8601 9.75155C13.951 9.63105 14.0001 9.48424 14.0001 9.33332C14.0001 9.18241 13.951 9.0356 13.8601 8.9151C13.7693 8.79459 13.6417 8.70694 13.4966 8.66541L12.5924 8.40757L12.3346 7.50341C12.293 7.35832 12.2054 7.23071 12.0849 7.13986C11.9644 7.04902 11.8176 6.99988 11.6667 6.99988C11.5158 6.99988 11.3689 7.04902 11.2484 7.13986C11.1279 7.23071 11.0403 7.35832 10.9987 7.50341L10.7409 8.40757L9.83675 8.66541C9.69167 8.70694 9.56405 8.79459 9.4732 8.9151C9.38236 9.0356 9.33322 9.18241 9.33322 9.33332C9.33322 9.48424 9.38236 9.63105 9.4732 9.75155C9.56405 9.87206 9.69167 9.95971 9.83675 10.0012ZM10.3577 2.62499L11.1481 2.85074L11.375 3.64232C11.4119 3.76843 11.4887 3.87917 11.5939 3.95796C11.6991 4.03674 11.8269 4.07933 11.9583 4.07933C12.0897 4.07933 12.2176 4.03674 12.3228 3.95796C12.4279 3.87917 12.5047 3.76843 12.5417 3.64232L12.7674 2.85191L13.559 2.62499C13.6851 2.58806 13.7958 2.51126 13.8746 2.40609C13.9534 2.30093 13.996 2.17306 13.996 2.04166C13.996 1.91026 13.9534 1.78239 13.8746 1.67722C13.7958 1.57206 13.6851 1.49526 13.559 1.45833L12.7686 1.23258L12.5417 0.440992C12.5047 0.314885 12.4279 0.204142 12.3228 0.125358C12.2176 0.0465732 12.0897 0.00399048 11.9583 0.00399048C11.8269 0.00399048 11.6991 0.0465732 11.5939 0.125358C11.4887 0.204142 11.4119 0.314885 11.375 0.440992L11.1493 1.23141L10.3577 1.45833C10.2316 1.49526 10.1208 1.57206 10.042 1.67722C9.96325 1.78239 9.92066 1.91026 9.92066 2.04166C9.92066 2.17306 9.96325 2.30093 10.042 2.40609C10.1208 2.51126 10.2316 2.58806 10.3577 2.62499Z" fill="white"/>
</svg>
