<svg width="12" height="12" viewBox="0 0 12 12" fill="none" xmlns="http://www.w3.org/2000/svg">
<path d="M0.803532 9.00002C1.21711 9.71781 2.13429 9.96442 2.85209 9.55084C2.85258 9.55056 2.85305 9.55028 2.85354 9.55L3.07603 9.42149C3.49603 9.78084 3.9788 10.0595 4.50002 10.2435V10.5C4.50002 11.3284 5.1716 12 6.00002 12C6.82845 12 7.50002 11.3284 7.50002 10.5V10.2435C8.02132 10.0592 8.50411 9.78023 8.92402 9.42051L9.14752 9.54951C9.86548 9.96372 10.7833 9.71748 11.1975 8.9995C11.6117 8.28154 11.3655 7.3637 10.6475 6.94949L10.4255 6.8215C10.5255 6.27773 10.5255 5.72029 10.4255 5.17649L10.6475 5.0485C11.3655 4.63429 11.6117 3.71648 11.1975 2.99849C10.7833 2.28053 9.8655 2.03427 9.14752 2.44848L8.92502 2.57699C8.5046 2.21809 8.02151 1.93994 7.50002 1.75652V1.50002C7.50002 0.671593 6.82845 1.52588e-05 6.00002 1.52588e-05C5.1716 1.52588e-05 4.50002 0.671593 4.50002 1.50002V1.75652C3.97873 1.9408 3.49594 2.2198 3.07603 2.57952L2.85253 2.45003C2.13455 2.0358 1.21674 2.28205 0.802525 3.00002C0.388314 3.71798 0.634548 4.63581 1.35253 5.05002L1.57453 5.17802C1.47459 5.72179 1.47459 6.27923 1.57453 6.82302L1.35253 6.95101C0.63654 7.36633 0.391103 8.28236 0.803532 9.00002ZM6.00002 4.00002C7.10459 4.00002 8.00002 4.89545 8.00002 6.00002C8.00002 7.10458 7.10459 8.00001 6.00002 8.00001C4.89546 8.00001 4.00003 7.10458 4.00003 6.00002C4.00003 4.89545 4.89546 4.00002 6.00002 4.00002Z" fill="white"/>
</svg>
