<svg width="14" height="14" viewBox="0 0 14 14" fill="none" xmlns="http://www.w3.org/2000/svg">
<path d="M7.13334 1.75C6.58787 0.590186 5.20547 0.0921863 4.04569 0.637655C3.55669 0.867655 3.16331 1.26103 2.93334 1.75H1C0.447719 1.75 0 2.19772 0 2.75C0 3.30228 0.447719 3.75 1 3.75H2.93C3.47547 4.90981 4.85787 5.40781 6.01766 4.86234C6.50663 4.63237 6.9 4.23897 7.13 3.75H15C15.5523 3.75 16 3.30228 16 2.75C16 2.19772 15.5523 1.75 15 1.75H7.13334Z" fill="white"/>
<path d="M10.97 5.66663C10.0711 5.66822 9.25341 6.18722 8.86934 6.99997H1C0.447719 6.99997 0 7.44769 0 7.99997C0 8.55225 0.447719 8.99997 1 8.99997H8.86666C9.41212 10.1598 10.7945 10.6578 11.9543 10.1123C12.4433 9.88235 12.8367 9.48894 13.0667 8.99997H15C15.5523 8.99997 16 8.55225 16 7.99997C16 7.44769 15.5523 6.99997 15 6.99997H13.07C12.686 6.18744 11.8687 5.6685 10.97 5.66663Z" fill="white"/>
<path d="M5.03 10.9166C4.13131 10.9185 3.31397 11.4374 2.93 12.25H1C0.447719 12.25 0 12.6977 0 13.25C0 13.8023 0.447719 14.25 1 14.25H2.93C3.47547 15.4098 4.85787 15.9078 6.01766 15.3623C6.50663 15.1323 6.9 14.7389 7.13 14.25H15C15.5523 14.25 16 13.8023 16 13.25C16 12.6977 15.5523 12.25 15 12.25H7.13334C6.74884 11.4364 5.92988 10.9172 5.03 10.9166Z" fill="white"/>
</svg>
