<svg width="14" height="14" viewBox="0 0 14 14" fill="none" xmlns="http://www.w3.org/2000/svg">
<g clip-path="url(#clip0_1_373)">
<path d="M6.99997 0C5.28772 0.00503364 3.63634 0.635709 2.35664 1.77333L1.57906 0.99575C1.49748 0.914194 1.39355 0.858657 1.28041 0.83616C1.16727 0.813662 1.05 0.825214 0.943424 0.869354C0.836849 0.913495 0.745754 0.988243 0.681655 1.08415C0.617556 1.18005 0.58333 1.29281 0.583306 1.40817V4.08333C0.583306 4.23804 0.644764 4.38642 0.75416 4.49581C0.863556 4.60521 1.01193 4.66667 1.16664 4.66667H3.84181C3.95716 4.66664 4.06992 4.63242 4.16582 4.56832C4.26173 4.50422 4.33648 4.41312 4.38062 4.30655C4.42476 4.19997 4.43631 4.0827 4.41381 3.96956C4.39132 3.85643 4.33578 3.7525 4.25422 3.67092L3.59214 3.00883C4.36476 2.34881 5.31233 1.9272 6.31986 1.79514C7.3274 1.66308 8.35161 1.82626 9.26824 2.26487C10.1849 2.70348 10.9545 3.39867 11.4838 4.26611C12.013 5.13354 12.2792 6.13593 12.25 7.15167C12.2124 8.46409 11.6845 9.71481 10.7703 10.6572C9.85611 11.5996 8.62198 12.1652 7.3113 12.2425C6.00062 12.3198 4.70855 11.9032 3.68987 11.0749C2.6712 10.2465 1.99988 9.06657 1.80831 7.76767C1.78095 7.55647 1.67801 7.36233 1.51853 7.2212C1.35905 7.08006 1.15384 7.00148 0.940889 7C0.817318 6.9984 0.69483 7.0232 0.581606 7.07272C0.468381 7.12224 0.367029 7.19536 0.284318 7.28718C0.201607 7.379 0.139442 7.48742 0.101975 7.60518C0.064509 7.72295 0.0526041 7.84735 0.0670557 7.97008C0.309845 9.68857 1.18145 11.2559 2.5132 12.3688C3.84496 13.4817 5.54219 14.0611 7.27647 13.9947C9.03098 13.9102 10.6911 13.1753 11.9332 11.9332C13.1752 10.6911 13.9102 9.03101 13.9947 7.2765C14.0309 6.33495 13.8768 5.39578 13.5417 4.51515C13.2065 3.63453 12.6972 2.83053 12.0443 2.15124C11.3913 1.47196 10.608 0.931332 9.74128 0.561703C8.87457 0.192074 7.94221 0.0010315 6.99997 0Z" fill="white"/>
<path d="M6.70831 4.08331C6.47625 4.08331 6.25369 4.1755 6.08959 4.33959C5.9255 4.50369 5.83331 4.72625 5.83331 4.95831V7.46256C5.83338 7.77196 5.95634 8.06865 6.17515 8.2874L7.22106 9.33331C7.38609 9.4927 7.60712 9.5809 7.83654 9.5789C8.06596 9.57691 8.28542 9.48489 8.44765 9.32265C8.60989 9.16042 8.70191 8.94096 8.7039 8.71154C8.7059 8.48212 8.6177 8.26109 8.45831 8.09606L7.58331 7.22106V4.95831C7.58331 4.72625 7.49113 4.50369 7.32703 4.33959C7.16294 4.1755 6.94038 4.08331 6.70831 4.08331Z" fill="white"/>
</g>
<defs>
<clipPath id="clip0_1_373">
<rect width="14" height="14" fill="white"/>
</clipPath>
</defs>
</svg>
