<svg width="14" height="14" viewBox="0 0 14 14" fill="none" xmlns="http://www.w3.org/2000/svg">
<path d="M5.25 5.25H1.16667C0.52325 5.25 0 4.72675 0 4.08333V2.91667C0 1.30842 1.30842 0 2.91667 0H5.25C5.89342 0 6.41667 0.52325 6.41667 1.16667V4.08333C6.41667 4.72675 5.89342 5.25 5.25 5.25ZM11.0833 14H8.75C8.10658 14 7.58333 13.4767 7.58333 12.8333V9.91667C7.58333 9.27325 8.10658 8.75 8.75 8.75H12.8333C13.4767 8.75 14 9.27325 14 9.91667V11.0833C14 12.6916 12.6916 14 11.0833 14ZM12.8333 7.58333H8.75C8.10658 7.58333 7.58333 7.06008 7.58333 6.41667V1.16667C7.58333 0.52325 8.10658 0 8.75 0H11.0833C12.6916 0 14 1.30842 14 2.91667V6.41667C14 7.06008 13.4767 7.58333 12.8333 7.58333ZM5.25 14H2.91667C1.30842 14 0 12.6916 0 11.0833V7.58333C0 6.93992 0.52325 6.41667 1.16667 6.41667H5.25C5.89342 6.41667 6.41667 6.93992 6.41667 7.58333V12.8333C6.41667 13.4767 5.89342 14 5.25 14Z" fill="white"/>
</svg>
